<?xml version="1.0" encoding="iso-8859-1"?>
<!-- Generator: Adobe Illustrator 19.0.0, SVG Export Plug-In . SVG Version: 6.00 Build 0)  -->
<svg version="1.1" id="Capa_1" xmlns="http://www.w3.org/2000/svg" xmlns:xlink="http://www.w3.org/1999/xlink" x="0px" y="0px"
	 viewBox="0 0 484.524 484.524" style="enable-background:new 0 0 484.524 484.524;" xml:space="preserve">
<g>
	<path d="M480.239,236.17l-160.3-227c-4.3-8.4-28.1-15.8-36,6.2l-60.7,206c0,0-32.9,22.2-35.3,23.7l-26.3-36.6
		c-6.2-9.2-18.5-11.3-27.7-5.1s-11.3,18.5-5.1,27.7l26.1,37.1l-48.3,33.8l-26.1-37c-6.2-9.2-18.5-11.3-27.7-5.1
		c-9.2,6.2-11.3,18.5-5.1,27.7l26.2,37.3c-2.1,1.4-65.3,45.9-65.3,45.9c-9.2,6.2-11.3,18.5-5.1,27.7c11.2,12.8,24.7,7.2,28.8,5.1
		l13.4-9.4c1.7,9.9,5.5,19.4,11.2,27.9l22.6,31.8c11.9,18.9,54.8,45.8,97.6,17.5l113-79.1c17.6-10.5,46.9-49.5,17.5-97.6
		c0,0-26.1-36.4-28.1-38.5l183.2,11.8C471.839,267.67,493.739,263.67,480.239,236.17z M268.539,358.47l-113,79.1
		c-13.4,9.2-32.9,6.2-42.1-7.2l-22.6-31.8c-6.1-6.1-10.4-26.2,4.2-38.7l118.1-82.6c19.4-9.8,33.9,1.1,40.1,8.3l22.6,31.8
		C280.939,323.57,287.239,345.97,268.539,358.47z M267.539,215.67l43.1-149l112,159.2L267.539,215.67z"/>
</g>
<g>
</g>
<g>
</g>
<g>
</g>
<g>
</g>
<g>
</g>
<g>
</g>
<g>
</g>
<g>
</g>
<g>
</g>
<g>
</g>
<g>
</g>
<g>
</g>
<g>
</g>
<g>
</g>
<g>
</g>
</svg>
